<svg width="24" height="24" viewBox="0 0 24 24" fill="none" xmlns="http://www.w3.org/2000/svg">
<g clip-path="url(#clip0_102_369)">
<path fill-rule="evenodd" clip-rule="evenodd" d="M14.85 14.282C16.0253 13.6477 16.9555 12.6394 17.493 11.4168C18.0306 10.1942 18.1449 8.8272 17.8178 7.53231C17.4907 6.23742 16.7409 5.08868 15.6872 4.26805C14.6335 3.44742 13.3361 3.00182 12.0005 3.00182C10.6649 3.00182 9.36755 3.44742 8.31384 4.26805C7.26013 5.08868 6.51034 6.23742 6.18324 7.53231C5.85613 8.8272 5.97041 10.1942 6.50798 11.4168C7.04555 12.6394 7.97566 13.6477 9.151 14.282C5.962 14.867 3 16.23 3 17V21H21V17C21 16.23 18.038 14.868 14.85 14.282ZM16 9C16 10.0609 15.5786 11.0783 14.8284 11.8284C14.0783 12.5786 13.0609 13 12 13C10.9391 13 9.92172 12.5786 9.17157 11.8284C8.42143 11.0783 8 10.0609 8 9C8 7.93913 8.42143 6.92172 9.17157 6.17157C9.92172 5.42143 10.9391 5 12 5C13.0609 5 14.0783 5.42143 14.8284 6.17157C15.5786 6.92172 16 7.93913 16 9ZM19 17.748V19H5V17.748C5.377 17.53 5.947 17.268 6.673 17.008C8.269 16.438 10.287 16 12 16C13.713 16 15.73 16.438 17.327 17.009C18.053 17.268 18.623 17.53 19 17.749V17.748Z" fill="#0D1421"/>
</g>
<defs>
<clipPath id="clip0_102_369">
<rect width="24" height="24" fill="white"/>
</clipPath>
</defs>
</svg>
